<svg xmlns="http://www.w3.org/2000/svg" width="106" height="121.537" viewBox="0 0 106 121.537">
  <g id="Group_133" data-name="Group 133" transform="translate(-26 -597.439)">
    <path id="Path_8" data-name="Path 8" d="M-933,328.37s25.318-72.054,54,0" transform="translate(985 302.63)" fill="none" stroke="#11ae68" stroke-width="3"/>
    <path id="Path_30" data-name="Path 30" d="M14,0h7L10,80.87,0,93Z" transform="translate(111 625.976)" fill="#0c9256"/>
    <path id="Path_31" data-name="Path 31" d="M0,0H98L85,83H13Z" transform="translate(26 635.976)" fill="#11ae68"/>
    <g id="Path_32" data-name="Path 32" transform="translate(26 625.994)" fill="#fff">
      <path d="M 97.51937103271484 9 L 2.080631494522095 9 L 8.480631828308105 1 L 103.9193649291992 1 L 97.51937103271484 9 Z" stroke="none"/>
      <path d="M 8.96124267578125 2 L 4.161247253417969 8 L 97.03875732421875 8 L 101.838752746582 2 L 8.96124267578125 2 M 8 0 L 106 0 L 98 10 L 0 10 L 8 0 Z" stroke="none" fill="#11ae68"/>
    </g>
    <g id="Group_147" data-name="Group 147" transform="translate(44 607.976)">
      <path id="Path_8-2" data-name="Path 8" d="M-933,328.37s25.318-72.054,54,0" transform="translate(937 -296.346)" fill="none" stroke="#11ae68" stroke-width="3"/>
      <circle id="Ellipse_1" data-name="Ellipse 1" cx="3.5" cy="3.5" r="3.5" transform="translate(0 31.024)" fill="#fff"/>
      <circle id="Ellipse_2" data-name="Ellipse 2" cx="3.5" cy="3.5" r="3.5" transform="translate(55 31.024)" fill="#fff"/>
    </g>
    <path id="Path_33" data-name="Path 33" d="M11.537,37.182a14.234,14.234,0,0,1-6.612-1.25,6.513,6.513,0,0,1-3.191-3.651,17.441,17.441,0,0,1-.855-5.822V5.8H-2.805V-1.239H.879V-12.818H11.734V-1.239h5.395V5.8H11.734V25.406a2.784,2.784,0,0,0,.954,2.368,3.86,3.86,0,0,0,2.4.724,11.723,11.723,0,0,0,1.579-.1q.724-.1,1.316-.164v8.421q-.855.132-2.7.329A35.18,35.18,0,0,1,11.537,37.182Z" transform="translate(67.41 664.794)" fill="#fff"/>
  </g>
</svg>
