<svg xmlns="http://www.w3.org/2000/svg" xmlns:xlink="http://www.w3.org/1999/xlink" width="110" height="40" viewBox="0 0 110 40">
  <defs>
    <clipPath id="clip-path">
      <rect id="Rectangle_184" data-name="Rectangle 184" width="110" height="40"/>
    </clipPath>
  </defs>
  <g id="logo" clip-path="url(#clip-path)">
    <g id="Group_148" data-name="Group 148" transform="translate(0 0.656)">
      <g id="Group_133" data-name="Group 133">
        <path id="Path_8" data-name="Path 8" d="M-933,306.846s8.338-23.624,17.784,0" transform="translate(941.563 -296.346)" fill="none" stroke="#0c9256" stroke-width="1"/>
        <path id="Path_30" data-name="Path 30" d="M4.611,0H6.916L3.293,26.515,0,30.492Z" transform="translate(27.994 8.852)" fill="#0c9256"/>
        <path id="Path_31" data-name="Path 31" d="M0,0H32.275L27.994,27.213H4.281Z" transform="translate(0 12.131)" fill="#11ae68"/>
        <g id="Path_32" data-name="Path 32" transform="translate(0 8.858)">
          <path id="Path_44" data-name="Path 44" d="M33.513,3.623H2.081L4.188,1H35.62Z" transform="translate(-1.395 -0.672)" fill="#fff"/>
          <path id="Path_45" data-name="Path 45" d="M2.951.656,1.37,2.623H31.959L33.54.656H2.951M2.635,0H34.91L32.275,3.279H0Z" fill="#11ae68"/>
        </g>
        <g id="Group_147" data-name="Group 147" transform="translate(5.928 2.951)">
          <path id="Path_8-2" data-name="Path 8" d="M-933,306.846s8.338-23.624,17.784,0" transform="translate(934.317 -296.346)" fill="none" stroke="#0c9256" stroke-width="1"/>
          <ellipse id="Ellipse_1" data-name="Ellipse 1" cx="1.153" cy="1.148" rx="1.153" ry="1.148" transform="translate(0 10.172)" fill="#fff"/>
          <ellipse id="Ellipse_2" data-name="Ellipse 2" cx="1.153" cy="1.148" rx="1.153" ry="1.148" transform="translate(18.114 10.172)" fill="#fff"/>
        </g>
        <path id="Path_33" data-name="Path 33" d="M1.918,3.575a4.706,4.706,0,0,1-2.178-.41,2.138,2.138,0,0,1-1.051-1.2A5.7,5.7,0,0,1-1.592.06V-6.714H-2.805V-9.022h1.213v-3.8H1.983v3.8H3.76v2.308H1.983V-.286A.911.911,0,0,0,2.3.491a1.275,1.275,0,0,0,.79.237A3.878,3.878,0,0,0,3.608.7q.238-.033.433-.054V3.4q-.282.043-.889.108a11.638,11.638,0,0,1-1.234.065Z" transform="translate(15.519 30.195)" fill="#fff"/>
      </g>
      <path id="Path_13" data-name="Path 13" d="M-15.776-3.569V-5.255h1.64v1.686Zm4.655.11a2.413,2.413,0,0,1-1.145-.252A1.744,1.744,0,0,1-13-4.433a2.355,2.355,0,0,1-.256-1.14V-7.893A2.38,2.38,0,0,1-13-9.043a1.709,1.709,0,0,1,.73-.717,2.457,2.457,0,0,1,1.145-.247A2.735,2.735,0,0,1-10-9.8a1.513,1.513,0,0,1,.708.63A2.1,2.1,0,0,1-9.044-8.1v.668h-1.672v-.721a1.228,1.228,0,0,0-.048-.39.346.346,0,0,0-.138-.191.414.414,0,0,0-.218-.055.321.321,0,0,0-.213.071.439.439,0,0,0-.128.23,1.8,1.8,0,0,0-.043.445v2.626a1.148,1.148,0,0,0,.1.58.33.33,0,0,0,.293.153.38.38,0,0,0,.224-.06.363.363,0,0,0,.128-.2,1.273,1.273,0,0,0,.043-.367v-.843h1.672v.767a2.1,2.1,0,0,1-.25,1.067,1.556,1.556,0,0,1-.714.646,2.645,2.645,0,0,1-1.113.213Zm5.006,0a2.649,2.649,0,0,1-1.145-.23,1.649,1.649,0,0,1-.746-.689,2.3,2.3,0,0,1-.261-1.15v-2.41A2.3,2.3,0,0,1-8-9.087a1.649,1.649,0,0,1,.746-.689A2.649,2.649,0,0,1-6.114-10a2.649,2.649,0,0,1,1.145.23,1.679,1.679,0,0,1,.751.689,2.264,2.264,0,0,1,.266,1.15v2.408a2.264,2.264,0,0,1-.266,1.15,1.679,1.679,0,0,1-.751.689,2.649,2.649,0,0,1-1.145.231ZM-6.1-4.642a.366.366,0,0,0,.266-.092A.508.508,0,0,0-5.706-5a1.942,1.942,0,0,0,.037-.41V-8.056a1.942,1.942,0,0,0-.037-.41.508.508,0,0,0-.132-.262A.366.366,0,0,0-6.1-8.822a.366.366,0,0,0-.266.093.54.54,0,0,0-.138.262,1.708,1.708,0,0,0-.042.41v2.649A1.708,1.708,0,0,0-6.508-5a.54.54,0,0,0,.138.262.366.366,0,0,0,.266.092Zm3.111,1.073V-9.9h1.7v.5a2.079,2.079,0,0,1,.708-.482,2.064,2.064,0,0,1,.751-.142,1.09,1.09,0,0,1,.645.191,1.16,1.16,0,0,1,.41.564,2.137,2.137,0,0,1,.762-.587,2.041,2.041,0,0,1,.8-.17,1.093,1.093,0,0,1,.628.181,1.181,1.181,0,0,1,.415.525,2.075,2.075,0,0,1,.149.827v4.918H2.28V-8.3a.616.616,0,0,0-.091-.378.325.325,0,0,0-.272-.115.788.788,0,0,0-.266.06,1.291,1.291,0,0,0-.309.17v4.992H-.34V-8.3a.59.59,0,0,0-.1-.378.34.34,0,0,0-.277-.115.764.764,0,0,0-.272.06,1.331,1.331,0,0,0-.3.17v4.992Z" transform="translate(106.016 38.542)" fill="#11ae68"/>
      <rect id="Rectangle_132" data-name="Rectangle 132" width="51.377" height="1.967" transform="translate(37.545 33.115)" fill="#343f49"/>
      <path id="Path_20" data-name="Path 20" d="M-9.35,4.794a4.989,4.989,0,0,1-2.323-.44,2.292,2.292,0,0,1-1.12-1.286,6.159,6.159,0,0,1-.3-2.051V-6.26h-1.294v-2.48h1.294v-4.079h3.812v4.079h1.9v2.48h-1.9V.646a.981.981,0,0,0,.335.834,1.355,1.355,0,0,0,.843.255A4.107,4.107,0,0,0-7.547,1.7q.254-.035.461-.058V4.609q-.3.046-.948.116A12.326,12.326,0,0,1-9.35,4.794Zm6.795.093A2.9,2.9,0,0,1-4.265,4.4a3.052,3.052,0,0,1-1.04-1.24A3.65,3.65,0,0,1-5.652,1.62a4.145,4.145,0,0,1,.5-2.109A4.562,4.562,0,0,1-3.849-1.927,9,9,0,0,1-2.071-2.91q.971-.406,1.918-.73V-4.985A2.448,2.448,0,0,0-.221-5.6a.844.844,0,0,0-.231-.417.69.69,0,0,0-.485-.15.777.777,0,0,0-.5.139.731.731,0,0,0-.243.382,2.762,2.762,0,0,0-.093.545l-.093.973-3.513-.139A5.163,5.163,0,0,1-4.092-7.823a4.808,4.808,0,0,1,3.5-1.148A3.871,3.871,0,0,1,2.447-7.847,4.2,4.2,0,0,1,3.453-4.939V1.319q0,.834.035,1.46T3.58,3.868q.058.464.1.787H.311Q.241,4.122.149,3.5A5.23,5.23,0,0,0,.01,2.755,3.387,3.387,0,0,1-.855,4.237a2.27,2.27,0,0,1-1.7.65Zm1.34-2.549a.989.989,0,0,0,.428-.093A1.269,1.269,0,0,0-.427,1.99,2.593,2.593,0,0,0-.15,1.666V-2q-.461.278-.856.568a3.53,3.53,0,0,0-.67.637A2.713,2.713,0,0,0-2.1-.036a2.621,2.621,0,0,0-.15.915,1.821,1.821,0,0,0,.277,1.066.883.883,0,0,0,.763.393ZM5.742,4.655V-8.739H9.509v2.225A7.467,7.467,0,0,1,10.8-8.288,2.2,2.2,0,0,1,12.375-8.9q.185,0,.323.011a.875.875,0,0,1,.254.058v3.754a3.47,3.47,0,0,0-.566-.2,2.609,2.609,0,0,0-.659-.081,2.221,2.221,0,0,0-1.2.347,3.909,3.909,0,0,0-1.017.951V4.655Zm11.163.232a2.3,2.3,0,0,1-1.375-.406,2.408,2.408,0,0,1-.843-1.124,4.409,4.409,0,0,1-.277-1.6v-10.5h3.767V1.319a1.378,1.378,0,0,0,.173.754.674.674,0,0,0,.613.267,1.272,1.272,0,0,0,.532-.128q.277-.128.578-.29V-8.739h3.744V4.655H20.071V3.427a6.287,6.287,0,0,1-1.515,1.066,3.687,3.687,0,0,1-1.651.394Z" transform="translate(51.933 21.67)" fill="#11ae68"/>
      <path id="Path_19" data-name="Path 19" d="M-12.5,3.719V-13.77H-9V3.719Zm9.88.216a5.508,5.508,0,0,1-2.324-.453,3.311,3.311,0,0,1-1.515-1.36,4.436,4.436,0,0,1-.53-2.267V-4.895a4.436,4.436,0,0,1,.53-2.269,3.311,3.311,0,0,1,1.513-1.36,5.509,5.509,0,0,1,2.324-.453A5.509,5.509,0,0,1-.3-8.523a3.373,3.373,0,0,1,1.524,1.36,4.365,4.365,0,0,1,.54,2.269V-.146a4.365,4.365,0,0,1-.54,2.268A3.373,3.373,0,0,1-.3,3.482a5.508,5.508,0,0,1-2.324.453ZM-2.6,1.6a.756.756,0,0,0,.54-.184A.992.992,0,0,0-1.788.9a3.727,3.727,0,0,0,.076-.81V-5.134a3.727,3.727,0,0,0-.076-.81.992.992,0,0,0-.27-.518.756.756,0,0,0-.54-.184.756.756,0,0,0-.54.184,1.056,1.056,0,0,0-.281.518,3.278,3.278,0,0,0-.087.81V.092A3.278,3.278,0,0,0-3.419.9a1.056,1.056,0,0,0,.281.518A.756.756,0,0,0-2.6,1.6ZM7.584,3.849a4.682,4.682,0,0,1-2.174-.41,2.138,2.138,0,0,1-1.048-1.2A5.717,5.717,0,0,1,4.081.329v-6.78H2.869v-2.31H4.08v-3.8H7.647v3.8H9.419v2.31H7.647V-.016A.913.913,0,0,0,7.96.761,1.269,1.269,0,0,0,8.751,1,3.857,3.857,0,0,0,9.269.966Q9.507.933,9.7.912V3.676q-.281.043-.886.108a11.574,11.574,0,0,1-1.234.065Zm6.356.086a2.723,2.723,0,0,1-1.6-.453,2.846,2.846,0,0,1-.973-1.155A3.389,3.389,0,0,1,11.043.891a3.85,3.85,0,0,1,.465-1.965,4.256,4.256,0,0,1,1.22-1.339,8.432,8.432,0,0,1,1.664-.918q.907-.377,1.794-.678V-5.262a2.274,2.274,0,0,0-.066-.572.786.786,0,0,0-.216-.389.647.647,0,0,0-.454-.14.729.729,0,0,0-.465.131.681.681,0,0,0-.227.356,2.564,2.564,0,0,0-.087.508l-.087.907L11.3-4.592a4.8,4.8,0,0,1,1.2-3.314,4.513,4.513,0,0,1,3.276-1.07,3.629,3.629,0,0,1,2.843,1.047,3.9,3.9,0,0,1,.94,2.71V.61q0,.777.033,1.36t.087,1.016q.054.432.1.734H16.618q-.066-.5-.151-1.08a4.855,4.855,0,0,0-.13-.691,3.153,3.153,0,0,1-.81,1.38,2.128,2.128,0,0,1-1.589.6ZM15.194,1.56a.928.928,0,0,0,.4-.086,1.186,1.186,0,0,0,.333-.237,2.419,2.419,0,0,0,.26-.3v-3.41q-.432.259-.8.529a3.3,3.3,0,0,0-.626.594,2.525,2.525,0,0,0-.4.7A2.434,2.434,0,0,0,14.22.2a1.692,1.692,0,0,0,.26.993.827.827,0,0,0,.712.366Z" transform="translate(90.226 22.622)" fill="#343f49"/>
    </g>
  </g>
</svg>
